<svg width="15" height="14" viewBox="0 0 15 14" fill="none" xmlns="http://www.w3.org/2000/svg">
<path d="M10.3125 12.5938V8.375H4.6875V12.5938C4.6875 12.875 4.5 13.0625 4.21875 13.0625H10.7812C10.5 13.0625 10.3125 12.875 10.3125 12.5938Z" fill="black"/>
<path d="M12.6562 5.14062V2.65625C12.6562 1.4375 11.625 0.40625 10.4062 0.40625H4.59375C3.375 0.40625 2.34375 1.4375 2.34375 2.65625V5.14062C1.54688 5.32812 0.9375 6.07812 0.9375 6.96875V11.6562C0.9375 12.4531 1.54688 13.0625 2.34375 13.0625H4.21875C3.9375 13.0625 3.75 12.875 3.75 12.5938V6.96875C3.75 6.45312 3.32812 6.03125 2.8125 6.03125C2.53125 6.03125 2.34375 5.84375 2.34375 5.5625C2.34375 5.28125 2.53125 5.09375 2.8125 5.09375C3.84375 5.09375 4.6875 5.9375 4.6875 6.96875V7.4375H10.3125V6.96875C10.3125 5.9375 11.1562 5.09375 12.1875 5.09375C12.4688 5.09375 12.6562 5.28125 12.6562 5.5625C12.6562 5.84375 12.4688 6.03125 12.1875 6.03125C11.6719 6.03125 11.25 6.45312 11.25 6.96875V12.5938C11.25 12.875 11.0625 13.0625 10.7812 13.0625H12.6562C13.4531 13.0625 14.0625 12.4531 14.0625 11.6562V6.96875C14.0625 6.07812 13.4531 5.375 12.6562 5.14062Z" fill="black"/>
</svg>
